<svg width="300" height="300" viewBox="0 0 300 300" fill="none" xmlns="http://www.w3.org/2000/svg">
<circle cx="150" cy="150" r="150" fill="#21242D"/>
<path d="M216.15 136.468L231.262 149.406L228.073 206.799L202.208 241.165L196.54 193.691L161.818 237.976H134.89L101.231 193.691L98.3969 241.165L72.5325 206.799L67.5723 149.406L82.3875 136.468C67.8611 111.314 80.1057 60.2673 92.8607 59.417C98.4115 59.417 106.546 82.092 120.718 102.995H177.053C191.225 82.092 201.396 59.417 206.947 59.417C219.702 60.2673 230.676 111.314 216.15 136.468Z" fill="white"/>
<path d="M231.262 149.406L177.053 102.995M231.262 149.406L228.073 206.799L202.208 241.165L196.54 193.691M231.262 149.406L196.54 193.691M177.053 102.995H120.718M177.053 102.995C191.225 82.092 201.396 59.417 206.947 59.417C219.702 60.2673 230.676 111.314 216.15 136.468M120.718 102.995L67.5723 149.406M120.718 102.995C106.546 82.092 98.4115 59.417 92.8607 59.417C80.1057 60.2673 67.8611 111.314 82.3875 136.468M67.5723 149.406L101.231 193.691M67.5723 149.406L72.5325 206.799L98.3969 241.165L101.231 193.691M196.54 193.691L161.818 237.976H134.89L101.231 193.691M172.925 138.068V163.576M111.275 133.108C115.999 126.022 128.424 116.102 140.328 133.108M111.275 167.827C115.999 174.913 128.424 184.833 140.328 167.827M126.511 138.068V163.576" stroke="#21242D" stroke-width="7" stroke-linecap="round" stroke-linejoin="round"/>
</svg>
