<svg width="297" height="326" viewBox="0 0 297 326" fill="none" xmlns="http://www.w3.org/2000/svg">
<path d="M263.058 139.617L289 161.662L283.526 259.458L239.126 318.015L229.394 237.122L169.788 312.582H123.563L65.7814 237.122L60.9156 318.015L16.5152 259.458L8 161.662L33.4329 139.617C8.4958 96.7556 29.5157 9.77476 51.4118 8.32593C60.9406 8.32593 74.9047 46.9631 99.2338 82.5801H195.942C220.271 46.9631 237.731 8.32593 247.26 8.32593C269.156 9.77476 287.996 96.7556 263.058 139.617Z" fill="white"/>
<path d="M289 161.662L195.942 82.5801M289 161.662L283.526 259.458L239.126 318.015L229.394 237.122M289 161.662L229.394 237.122M195.942 82.5801H99.2338M195.942 82.5801C220.271 46.9631 237.731 8.32593 247.26 8.32593C269.156 9.77476 287.996 96.7556 263.058 139.617M99.2338 82.5801L8 161.662M99.2338 82.5801C74.9047 46.9631 60.9406 8.32593 51.4118 8.32593C29.5157 9.77476 8.4958 96.7556 33.4329 139.617M8 161.662L65.7814 237.122M8 161.662L16.5152 259.458L60.9156 318.015L65.7814 237.122M229.394 237.122L169.788 312.582H123.563L65.7814 237.122" stroke="#00B9AE" stroke-width="15" stroke-linecap="round" stroke-linejoin="round"/>
</svg>
